HIERARCHY
ROOT pelvis
{
  OFFSET 0 100 0
  CHANNELS 6 Xposition Yposition Zposition Zrotation Xrotation Yrotation
  JOINT pelvis_right_femur
  {
    OFFSET -10.78128 -3.44521 -0.5502486
    CHANNELS 3 Zrotation Xrotation Yrotation
    JOINT right_femur_tibia
    {
      OFFSET -0.8047443 -44.0398 -0.1307829
      CHANNELS 3 Zrotation Xrotation Yrotation
      JOINT right_tibia_foot
      {
        OFFSET 3.006224 -47.83518 -5
        CHANNELS 3 Zrotation Xrotation Yrotation
        End Site
        {
          OFFSET 0 -5 15
        }
      }
    }
  }
  JOINT pelvis_left_femur
  {
    OFFSET 10.78128 -3.44521 -0.5502486
    CHANNELS 3 Zrotation Xrotation Yrotation
    JOINT left_femur_tibia
    {
      OFFSET 0.8047443 -44.0398 -0.1307829
      CHANNELS 3 Zrotation Xrotation Yrotation
      JOINT left_tibia_foot
      {
        OFFSET -4.370144 -48.10324 -4.275266
        CHANNELS 3 Zrotation Xrotation Yrotation
        End Site
        {
          OFFSET 0 -5 15
        }
      }
    }
  }
  JOINT pelvis_spine1
  {
    OFFSET 0 6.468898 -3.129235
    CHANNELS 3 Zrotation Xrotation Yrotation
    JOINT spine1
    {
      OFFSET 0 23.15396 4.99043
      CHANNELS 3 Zrotation Xrotation Yrotation
      JOINT spine2
      {
        OFFSET 0 20.79997 -5.064912
        CHANNELS 3 Zrotation Xrotation Yrotation
        JOINT neck
        {
          OFFSET 0 14.38658 9.616178
          CHANNELS 3 Zrotation Xrotation Yrotation
          End Site
          {
            OFFSET 0 20 0
          }
        }
      }
      JOINT right_manubrium
      {
        OFFSET -5.722621 16.35077 3.967754
        CHANNELS 3 Zrotation Xrotation Yrotation
        JOINT right_clavicle
        {
          OFFSET -13.16364 1.694482 -4.693211
          CHANNELS 3 Zrotation Xrotation Yrotation
          JOINT right_humerus
          {
            OFFSET -28.5034 -0.3100689 -2.792744
            CHANNELS 3 Zrotation Xrotation Yrotation
            JOINT right_radius
            {
              OFFSET -25.15693 0.02248979 -1.271978
              CHANNELS 3 Zrotation Xrotation Yrotation
              End Site
              {
                OFFSET -15 0 0
              }
            }
          }
        }
      }
      JOINT left_manubrium
      {
        OFFSET 5.722621 16.35077 3.967754
        CHANNELS 3 Zrotation Xrotation Yrotation
        JOINT left_clavicle
        {
          OFFSET 13.16364 1.694482 -4.693211
          CHANNELS 3 Zrotation Xrotation Yrotation
          JOINT left_humerus
          {
            OFFSET 29.39168 -1.063119 -2.237045
            CHANNELS 3 Zrotation Xrotation Yrotation
            JOINT left_radius
            {
              OFFSET 24.59957 -0.9528479 0.9047498
              CHANNELS 3 Zrotation Xrotation Yrotation
              End Site
              {
                OFFSET 15 -0 -0
              }
            }
          }
        }
      }
    }
  }
}
MOTION
Frames: 7
Frame Time: 0.0416666666667
0 103.5113 0 2.172362 -1.206976 0.2779949 1.249508 -10.08245 8.744848 -0 34.67964 -0 -5.286725 -17.9758 -2.39624 -8.021001 10.0953 -23.50577 -0 5.130199 -0 7.680079 -16.14714 26.57173 -4.330167 -5.053445 4.940313 2.013837 9.21629 -7.752145 0.8324601 22.82001 7.175056 3.252481 -23.10232 8.804912 6.379365 -19.77394 11.56964 86.30517 35.94407 -19.7793 -0 0 16.2754 -7.581885 8.244302 4.624811 5.478553 -19.4629 -1.711473 -94.79613 29.75692 22.94568 0 0 -15.94326 3.490477 17.90199 9.587711
0.3369189 103.4839 1.349359 2.001038 -1.084736 0.4459504 1.524855 -11.08772 8.637285 -0 34.43735 -0 -5.367637 -17.56929 -2.422728 -7.853638 10.22514 -23.37827 -0 5.174777 -0 7.544361 -16.4166 26.38438 -4.256746 -4.852663 4.867489 2.103386 9.183512 -7.788733 0.8532108 22.71237 7.193377 3.284884 -23.24278 8.825878 6.372765 -19.73956 11.56099 86.27979 35.91923 -19.80677 -0 0 16.20719 -7.629428 8.280088 4.659889 5.53033 -19.47632 -1.742602 -94.72435 29.73163 22.81373 0 0 -16.16288 3.529301 17.81017 9.602009
0.7035603 103.4021 2.806622 1.766005 -0.8328314 0.4956629 1.872277 -12.59035 8.371541 -0 32.94764 -0 -5.464184 -16.79527 -2.190954 -7.642125 10.37057 -23.13836 -0 5.290558 -0 7.333856 -16.84594 26.07337 -4.188409 -4.546991 4.816044 2.276908 9.114154 -7.820425 0.9038182 22.49636 7.211712 3.352278 -23.46292 8.847885 6.343648 -19.65242 11.55618 86.24996 35.88537 -19.87287 -0 0 16.06121 -7.697267 8.33724 4.704452 5.675233 -19.51425 -1.780321 -94.61183 29.68527 22.53709 0 0 -16.61634 3.598384 17.67654 9.574396
1.117334 103.21 4.428458 1.515953 -0.4310491 0.4100429 2.202712 -14.47693 7.925462 -0 29.74828 -0 -5.555299 -15.57635 -1.608987 -7.442051 10.51538 -22.75642 -0 5.529365 -0 7.047003 -17.429 25.61253 -4.14831 -4.166505 4.823448 2.519081 9.005662 -7.813825 0.9984766 22.17879 7.217974 3.458986 -23.7503 8.869584 6.271468 -19.48696 11.55137 86.23883 35.84248 -19.99422 -0 0 15.81644 -7.784765 8.417548 4.755065 5.931114 -19.60609 -1.806163 -94.43782 29.62077 22.08086 0 0 -17.32788 3.693417 17.50369 9.484005
1.579618 102.8453 6.261112 1.323463 0.1084416 0.2525289 2.405193 -16.51792 7.319419 -0 24.76732 -0 -5.621788 -13.90875 -0.6930651 -7.324856 10.66278 -22.21022 -0 5.960696 -0 6.680323 -18.12633 24.97005 -4.149355 -3.774066 4.912224 2.77436 8.867482 -7.732584 1.142727 21.81148 7.199776 3.597767 -24.07061 8.891486 6.134711 -19.22723 11.53303 86.28298 35.78917 -20.17958 -0 0 15.46539 -7.892588 8.522442 4.811458 6.282547 -19.78671 -1.794077 -94.1712 29.54545 21.44271 0 0 -18.24516 3.799627 17.29334 9.330617
2.086339 102.284 8.364138 1.223956 0.7641503 0.09676076 2.458566 -18.45048 6.572493 -0 18.43998 -0 -5.670161 -11.97741 0.4363195 -7.312513 10.83649 -21.49448 -0 6.654822 -0 6.202728 -18.8528 24.10785 -4.178287 -3.432074 5.040123 2.984952 8.710674 -7.607047 1.303277 21.4515 7.170174 3.748964 -24.37871 8.905431 5.938483 -18.90019 11.48305 86.40861 35.72817 -20.41064 -0 0 15.02065 -8.019097 8.65498 4.879002 6.674243 -20.0348 -1.74444 -93.81692 29.44938 20.69416 0 0 -19.2267 3.904616 17.0441 9.155108
2.631206 101.5585 10.82067 1.211278 1.501523 0.002962645 2.41263 -20.00368 5.727648 -0 11.51593 -0 -5.723032 -10.06228 1.621557 -7.37918 11.05709 -20.62011 -0 7.715232 -0 5.560096 -19.48113 22.98376 -4.194738 -3.190648 5.137014 3.110778 8.545068 -7.500558 1.434182 21.14445 7.150888 3.889715 -24.63518 8.899051 5.707553 -18.53948 11.38795 86.63546 35.66428 -20.67114 -0 0 14.49426 -8.161104 8.820189 4.963632 7.025097 -20.29821 -1.676947 -93.4058 29.31534 19.94377 0 0 -20.09546 3.9954 16.75233 9.013882
